<svg width="50" height="50" viewBox="0 0 50 50" fill="none" xmlns="http://www.w3.org/2000/svg">
<g opacity="0.3">
<path d="M24.0443 5.46346C24.0672 5.46247 24.0902 5.46104 24.1127 5.45962C24.2675 5.44965 24.4119 5.44039 24.5215 5.59562C24.6041 5.71525 24.587 5.83487 24.5158 5.95151C24.3789 6.17324 24.1765 6.05362 23.9826 6.08566V5.46446C24.0032 5.46474 24.0238 5.46432 24.0443 5.46346Z" fill="white"/>
<path d="M34.802 10.236C34.7479 10.3089 34.725 10.3992 34.7136 10.4255L34.7164 10.4225C34.6908 10.6384 34.7593 10.7259 34.8847 10.793C35.0101 10.8572 35.1356 10.8747 35.2267 10.7638C35.4726 10.469 35.7101 10.1655 35.9475 9.862L35.9538 9.85388C36.0393 9.74295 35.9936 9.63215 35.9281 9.53588C35.7884 9.33465 35.5461 9.31429 35.3779 9.50683C35.1755 9.7401 34.9873 9.98804 34.802 10.236Z" fill="white"/>
<path d="M32.1221 7.4185L31.9555 7.62015C31.8383 7.76185 31.7175 7.90768 31.5849 8.0669L31.5833 8.06604V8.06889L31.5849 8.0669L31.8551 8.20888L31.9078 8.23665L32.0879 8.33136C32.0983 8.24278 32.1084 8.1636 32.1174 8.08968L32.1208 8.06391L32.1253 8.02631C32.1334 7.96336 32.1408 7.90355 32.1478 7.84431C32.162 7.70731 32.1734 7.57301 32.1877 7.43601C32.1649 7.43017 32.145 7.42434 32.1221 7.4185Z" fill="white"/>
<path d="M14.9063 7.90469L14.9052 7.90555V7.9027L14.9063 7.90469Z" fill="white"/>
<path fill-rule="evenodd" clip-rule="evenodd" d="M40.3842 34.6303V35.0299L40.3927 35.0358H44.4382V34.6303C44.4382 33.8309 44.4378 33.0316 44.4374 32.2322L44.4361 29.8638C44.4354 28.2094 44.4353 26.555 44.4382 24.9006C44.4411 23.8506 44.3783 22.8094 44.2358 21.7711C44.0875 20.7124 43.8623 19.6741 43.5601 18.6532C43.1239 17.192 42.5338 15.8007 41.7983 14.4737C40.9857 13.0096 40.0192 11.6621 38.8731 10.4547C38.32 9.8714 37.7242 9.32596 37.1255 8.78921C36.0165 7.79475 34.7792 6.99268 33.4734 6.29857C32.2419 5.64233 30.9532 5.13193 29.6161 4.75568C28.6867 4.49307 27.7459 4.30352 26.788 4.18104C25.8386 4.06142 24.8892 4.00602 23.9341 4.00018C23.818 3.99833 23.7007 4.01114 23.5836 4.02425L23.5711 4.02553H23.5698C23.5105 4.03236 23.4514 4.0392 23.3925 4.04404C23.3044 4.05145 23.2163 4.05857 23.1281 4.06555L22.7633 4.09389L22.7587 4.09431C22.3812 4.12337 22.0045 4.15242 21.6278 4.18987C20.4874 4.30352 19.3726 4.56598 18.2779 4.91019C16.8752 5.35352 15.5325 5.93983 14.2552 6.68351C12.8725 7.48557 11.601 8.43632 10.4378 9.54172C9.78768 10.1601 9.18338 10.8251 8.61598 11.5279C7.76069 12.5896 7.01092 13.7242 6.37516 14.9374C5.66521 16.2938 5.10643 17.7112 4.71025 19.1928C4.43643 20.2107 4.22261 21.2403 4.12865 22.2932C4.0944 22.6606 4.03162 23.0281 4.0145 23.3986C4.0035 23.6344 4.00294 23.8712 4.00461 24.1085L4.00823 24.525L4.00865 24.6229L4.00879 24.6818H8.01725C8.04008 24.4544 8.08003 24.2502 8.08003 24.0431C8.0824 23.752 8.09896 23.4629 8.12527 23.175C8.14156 22.9962 8.16147 22.8179 8.18402 22.6398C8.21409 22.4034 8.24875 22.1674 8.28522 21.9314C8.49904 20.546 8.89536 19.2219 9.45706 17.9503C10.4264 15.76 11.7863 13.8584 13.5624 12.2718C14.7256 11.2334 16.0028 10.3818 17.4026 9.70806C19.2415 8.82425 21.1773 8.3372 23.1958 8.19436C24.4559 8.10393 25.7217 8.17684 26.9676 8.40427C28.661 8.71345 30.2747 9.26757 31.7943 10.1075C33.6902 11.1547 35.3295 12.5109 36.6951 14.22C38.2802 16.2033 39.3578 18.4373 39.9365 20.934C40.233 22.2086 40.3671 23.4977 40.3756 24.7956C40.3863 26.3307 40.3888 27.8657 40.3885 29.4008C40.3884 29.8893 40.3881 30.3777 40.3875 30.8662L40.3864 31.854V31.9044C40.3853 32.813 40.3842 33.7217 40.3842 34.6303ZM36.752 12.0121L36.7749 12.0383V12.0413C37.1198 11.7233 37.4648 11.4055 37.8325 11.0701C37.8867 11.1196 37.9466 11.178 38.0379 11.2655C37.6772 11.6199 37.3237 11.9698 36.9642 12.326L36.5211 12.7646L36.3951 12.642C36.3396 12.5876 36.2869 12.5362 36.2303 12.4817C36.3021 12.2349 36.3986 11.9992 36.4948 11.7646L36.496 11.7612C36.6014 11.5037 36.7064 11.2477 36.7778 10.9797C36.752 10.9621 36.7292 10.9476 36.7036 10.9301C36.3815 11.2304 36.0564 11.5309 35.7144 11.8516C35.6487 11.7962 35.586 11.7438 35.4976 11.6709C35.7947 11.3771 36.0831 11.089 36.3705 10.8025L36.3813 10.7914L36.3918 10.7811C36.5963 10.5769 36.8 10.3734 37.0058 10.1689L37.0821 10.2447L37.128 10.29L37.1979 10.3585C37.2406 10.4003 37.2814 10.4403 37.3222 10.4809C37.1541 10.9154 36.9887 11.3325 36.829 11.7497C36.8099 11.8011 36.7952 11.8545 36.7807 11.9082L36.7769 11.9223C36.7689 11.9523 36.7608 11.9825 36.752 12.0121ZM18.0198 7.53328L17.7048 7.10647L17.7077 7.10348C17.6906 7.11516 17.6764 7.12684 17.662 7.14136L17.97 8.16516C17.9877 8.22369 18.0019 8.28237 18.0167 8.34361L18.0184 8.35073L18.0298 8.39843C17.8788 8.48303 17.7534 8.51507 17.6906 8.32552C17.614 8.08926 17.5383 7.852 17.4631 7.61431C17.4077 7.439 17.3526 7.26355 17.2976 7.0881L17.1982 6.77123L17.1289 6.54936L17.1272 6.54166C17.1265 6.53697 17.1262 6.53198 17.1264 6.52643L17.1268 6.51446L17.1272 6.50734V6.50065L17.1285 6.47445L17.1289 6.44725C17.2401 6.40053 17.3628 6.35098 17.5224 6.2839C17.6225 6.42717 17.7233 6.57086 17.8259 6.71669L18.2606 7.33348L18.4974 7.66928V5.97187C18.546 5.95393 18.5946 5.9357 18.6439 5.91705L18.8155 5.85239C18.8567 5.83701 18.8988 5.82134 18.9422 5.80554C19.1731 6.49396 19.3954 7.16771 19.6207 7.84431C19.5181 7.89971 19.4496 7.93474 19.3498 7.9843C19.2913 7.86239 19.2415 7.73807 19.196 7.61246C19.1543 7.49768 19.1163 7.3819 19.0783 7.26626L19.0775 7.26412L19.0771 7.26241C19.037 7.14065 18.9969 7.01889 18.9528 6.89855C18.8995 6.75315 18.8403 6.60974 18.7682 6.4706C18.7792 6.7325 18.7895 6.99511 18.7996 7.25942L18.8337 8.12429C18.7775 8.14807 18.7231 8.17171 18.6677 8.1955C18.6279 8.21259 18.5876 8.22968 18.5459 8.24676C18.3696 8.00652 18.1945 7.76954 18.0198 7.53328ZM24.8603 6.84002C24.8603 6.9981 24.8603 7.16144 24.9178 7.31639V7.31938C24.6573 7.33291 24.5252 7.22795 24.5215 7.00436V6.82934C24.513 6.42688 24.4102 6.34229 23.9684 6.3947V7.31354L23.8164 7.32436C23.76 7.32821 23.7046 7.33205 23.6433 7.33675V5.1785C23.7284 5.1785 23.814 5.1765 23.8998 5.17451H23.9023C23.947 5.17351 23.9916 5.17252 24.0365 5.1718C24.1957 5.16895 24.3552 5.16981 24.513 5.18733C24.7924 5.21937 24.9633 5.53139 24.8808 5.82021C24.853 5.91505 24.8077 6.00449 24.7585 6.1009C24.7368 6.14362 24.7144 6.18777 24.6925 6.23434C24.7222 6.26339 24.7466 6.29415 24.7667 6.3262C24.8603 6.47544 24.8603 6.65417 24.8603 6.84002ZM35.8512 9.1189C36.1106 9.24721 36.3016 9.43391 36.3273 9.77513L36.3244 9.77798C36.3084 9.81785 36.294 9.85915 36.2797 9.9006L36.2793 9.90188C36.2613 9.95372 36.2432 10.0057 36.2216 10.055C36.2024 10.0987 36.1804 10.1403 36.1533 10.1776C35.9566 10.4459 35.7485 10.7084 35.5205 10.9505C35.2439 11.2451 34.9588 11.2509 34.6453 11.003C34.3431 10.7638 34.2746 10.4634 34.4941 10.1164C34.5899 9.96725 34.6936 9.8217 34.803 9.68028C34.9117 9.53958 35.0261 9.40287 35.1442 9.27057C35.3323 9.06051 35.5831 8.98759 35.8512 9.1189ZM31.5472 8.40185L31.3553 8.31099L31.2365 8.4581L31.1885 8.51621L31.1597 8.55124C31.1208 8.59852 31.0816 8.64637 31.0416 8.69593L30.9528 8.6552L30.9254 8.64267L30.8824 8.62287C30.8374 8.60237 30.7937 8.58229 30.7479 8.56178C30.7563 8.54469 30.7627 8.52917 30.7685 8.51521C30.7785 8.491 30.7866 8.47163 30.7993 8.45682C31.2155 7.98145 31.6346 7.51178 32.0537 7.03925C32.2019 6.87021 32.2275 6.87021 32.5555 7.05976C32.4756 7.78307 32.3929 8.5239 32.3045 9.29962L32.2334 9.26572C32.1423 9.22229 32.062 9.18412 31.971 9.14225C31.9923 8.98147 32.0136 8.8335 32.0372 8.66973L32.0422 8.6347C31.8867 8.56278 31.7281 8.48758 31.5472 8.40185ZM12.211 12.4234C11.9145 12.8171 11.6038 12.8317 11.2275 12.4408H11.2246C11.2555 12.4065 11.2836 12.3759 11.3112 12.3457L11.3657 12.2857L11.4128 12.2337C11.4359 12.2481 11.4583 12.2634 11.4804 12.2783C11.5347 12.3149 11.5871 12.3502 11.6437 12.3709C11.7776 12.4204 11.8804 12.3447 11.9716 12.2454C12.057 12.1521 12.0999 12.0442 12.0458 11.9275C12.0169 11.8657 11.9781 11.8143 11.9278 11.7816C11.8786 11.7494 11.8184 11.7351 11.7463 11.7467C11.6987 11.7539 11.6522 11.7668 11.6056 11.7796L11.5976 11.7817L11.555 11.7931L11.5183 11.8021C11.3757 11.8371 11.2303 11.8605 11.0907 11.9042C10.8284 11.9859 10.6544 11.8516 10.509 11.6621C10.434 11.5654 10.4048 11.4623 10.4077 11.3573C10.4102 11.2629 10.4389 11.1669 10.4834 11.0729C10.5175 11.003 10.566 10.9359 10.6203 10.8775C10.9166 10.5597 11.1419 10.5655 11.4669 10.9154C11.4213 10.9825 11.3728 11.0526 11.3216 11.1313C11.2854 11.1191 11.2513 11.1058 11.2184 11.093C11.1958 11.084 11.1736 11.0755 11.1518 11.0675C11.1082 11.0517 11.0657 11.0388 11.0222 11.0322C10.8768 11.0117 10.7314 11.143 10.7115 11.2947C10.6943 11.4113 10.8227 11.5571 10.9709 11.5571C11.0341 11.5571 11.0966 11.547 11.1593 11.5341C11.2179 11.5218 11.2765 11.5071 11.3358 11.4959C11.4898 11.4639 11.6437 11.4171 11.7977 11.4055C12.057 11.3879 12.2167 11.5484 12.3393 11.7614C12.4591 11.9713 12.4021 12.1608 12.2738 12.3417L12.211 12.4234ZM13.6081 10.4197C13.5709 10.3788 13.5396 10.3293 13.4968 10.2709H13.4939C13.6394 10.1164 13.7477 10.0872 13.8959 10.2243C14.0243 10.3409 14.1753 10.3089 14.298 10.2038C14.4091 10.1047 14.4205 9.9822 14.3864 9.85388C14.3549 9.73426 14.1783 9.63799 14.0214 9.65266L14.0009 9.65437C13.9651 9.6575 13.9294 9.66149 13.8936 9.66576C13.8529 9.67074 13.8123 9.6763 13.7715 9.68199L13.7519 9.68456C13.6793 9.69467 13.6068 9.70464 13.5343 9.71204L13.4825 9.71674C13.206 9.7401 13.0379 9.57091 12.9237 9.34049C12.8268 9.1451 12.8953 8.90599 13.0834 8.7106C13.0879 8.70604 13.0922 8.70234 13.0966 8.69864C13.1008 8.69508 13.105 8.69152 13.1092 8.68725C13.4455 8.35471 13.7278 8.38975 14.0328 8.79804C14.0318 8.80189 14.0315 8.80602 14.0313 8.81C14.0307 8.81826 14.03 8.8261 14.0243 8.83008C13.9933 8.85216 13.963 8.87423 13.9313 8.8973L13.9161 8.90841L13.819 8.97891C13.7719 8.94515 13.7268 8.9134 13.682 8.88206L13.6536 8.86213C13.5453 8.78352 13.4455 8.7922 13.34 8.87096C13.2374 8.95256 13.1804 9.06635 13.2374 9.17429C13.283 9.26174 13.3942 9.35516 13.4854 9.36684C13.5216 9.37168 13.5581 9.37324 13.5948 9.37253C13.6344 9.37168 13.6742 9.36812 13.7141 9.36313C13.7693 9.35615 13.8245 9.34619 13.8797 9.33636L13.9193 9.32924L13.9558 9.32297C14.335 9.26174 14.6942 9.50968 14.7313 9.86841C14.7654 10.1659 14.6059 10.4138 14.2809 10.5714C14.0357 10.6908 13.8219 10.6443 13.6081 10.4197ZM16.1291 7.24746L15.9971 7.31354L16.051 7.4343L16.0935 7.52986L16.1006 7.5461L16.1781 7.71998L16.2366 7.85015L16.3667 7.79019L16.4713 7.74149L16.8867 7.54681C16.9294 7.62257 16.9694 7.69549 17.0263 7.79475C16.7953 7.91722 16.5872 8.02802 16.3649 8.14765C16.4561 8.33435 16.5388 8.50638 16.6357 8.7106C16.7946 8.63854 16.9467 8.57118 17.0997 8.50325L17.3685 8.38391C17.3889 8.42435 17.4087 8.46166 17.4308 8.50353C17.4517 8.54312 17.4747 8.5867 17.5024 8.64053C17.2841 8.74563 17.0729 8.84703 16.8559 8.95113L16.4874 9.12758C16.2815 8.77682 16.1188 8.4104 15.9552 8.04226L15.9536 8.03884C15.8254 7.75017 15.6967 7.46051 15.5467 7.1764L15.8455 7.03484C16.0821 6.92262 16.3112 6.8141 16.5388 6.70686C16.6927 6.94312 16.6955 6.95181 16.5045 7.05392C16.3861 7.11872 16.2664 7.17882 16.1366 7.24361L16.1291 7.24746ZM23.2179 6.36607C23.1596 6.16185 22.9223 6.08481 22.5059 6.13522C22.3871 5.99765 22.3934 5.84029 22.4001 5.67181C22.4019 5.62581 22.4037 5.57896 22.4032 5.53139C22.5571 5.52271 22.6912 5.52555 22.8223 5.50804C22.9075 5.49835 22.9927 5.4797 23.0837 5.45976C23.1298 5.44965 23.1773 5.43911 23.2271 5.42943C23.1815 5.31849 23.1531 5.24856 23.1188 5.16397C22.7567 5.199 22.4146 5.23389 22.0468 5.27192L22.2065 7.42718C22.6028 7.39229 22.9676 7.35726 23.3498 7.32223L23.3442 7.28036L23.3329 7.19377C23.3271 7.14749 23.3218 7.10547 23.3155 7.06261H22.9905C22.6388 7.0666 22.4659 6.88374 22.4716 6.51432C22.4716 6.49396 22.4888 6.47644 22.5002 6.45024L22.7702 6.41905C22.9115 6.40267 23.058 6.38544 23.2179 6.36607ZM21.4539 6.95765C21.4567 6.91393 21.4624 6.87021 21.4681 6.80598L21.4709 6.80313L21.5562 6.79587L21.6434 6.78918L21.7333 6.78263C21.8215 6.8789 21.8103 7.23179 21.7189 7.35427C21.5479 7.58184 21.3027 7.62841 21.0462 7.61104C20.8209 7.59352 20.6585 7.45937 20.5957 7.24347C20.5216 6.98969 20.476 6.73022 20.4218 6.4706C20.4018 6.36849 20.3791 6.26638 20.3677 6.16427C20.3049 5.55774 20.6471 5.33899 21.1517 5.34768C21.2451 5.34868 21.3182 5.36705 21.3779 5.40764C21.4269 5.44082 21.4668 5.48881 21.5018 5.55446C21.5477 5.64077 21.5849 5.75754 21.6221 5.91064C21.5818 5.92474 21.5416 5.93955 21.5005 5.9545L21.4883 5.95891L21.4854 5.9602L21.4732 5.96461C21.4298 5.98056 21.3857 5.99665 21.3398 6.01275C21.3056 5.95721 21.2657 5.92231 21.26 5.88144C21.2314 5.70941 21.1403 5.63649 20.9749 5.65686C20.8727 5.66968 20.7852 5.72636 20.7349 5.81166C20.7052 5.86207 20.6887 5.92231 20.6898 5.98939C20.6955 6.13807 20.7297 6.28689 20.7554 6.43557C20.7629 6.47758 20.7701 6.51959 20.7772 6.5616C20.803 6.71199 20.8287 6.86195 20.8666 7.0102C20.9235 7.22596 21.0432 7.3339 21.1773 7.32522C21.3427 7.31639 21.4339 7.19391 21.4539 6.95765ZM31.1296 6.55149C31.1342 6.56288 31.1381 6.57442 31.1413 6.58624C31.1741 6.70658 31.135 6.8534 31.033 7.0656V7.07144C30.982 7.05022 30.9311 7.02985 30.8811 7.00992L30.8786 7.00906L30.8355 6.99197L30.765 6.96349C30.765 6.92376 30.7685 6.8836 30.7718 6.84472C30.7791 6.76098 30.7858 6.68294 30.7565 6.62512C30.723 6.56075 30.667 6.51888 30.6031 6.49923C30.4879 6.46377 30.3468 6.50065 30.2661 6.6076C30.2263 6.66015 30.2035 6.73022 30.1806 6.7943L30.0769 7.09921C30.0119 7.29132 29.9486 7.48344 29.8926 7.67811C29.8328 7.88803 29.8841 7.97262 30.0694 8.06305C30.2234 8.13597 30.3031 8.10677 30.4287 7.9289C30.4628 7.88219 30.4886 7.82978 30.5227 7.77424L30.8164 7.87934C30.7622 8.11845 30.6652 8.32851 30.4372 8.38092C30.1635 8.44215 29.8898 8.39259 29.6845 8.171C29.6276 8.10976 29.5819 8.00765 29.5848 7.92591C29.5933 7.69848 29.6104 7.46521 29.6646 7.24347C29.7217 7.0102 29.8128 6.78263 29.9097 6.56388C30.1521 6.01275 30.6539 6.0972 31.0046 6.39185C31.0234 6.40766 31.0402 6.42346 31.0553 6.43956C31.0663 6.45109 31.0763 6.46291 31.0853 6.47487C31.0934 6.48555 31.1006 6.49624 31.1073 6.5072C31.1121 6.51503 31.1164 6.52287 31.1203 6.53084C31.1236 6.53768 31.1267 6.54451 31.1296 6.55149ZM27.7916 5.4965L28.8235 5.69773C28.8178 5.80269 28.8121 5.89896 28.8036 6.01275C28.5955 5.96604 28.4216 5.92815 28.2476 5.88429C28.108 5.8494 28.0281 5.89896 28.0082 6.04479C27.991 6.15559 27.9739 6.26937 27.9511 6.42688L28.1876 6.48954C28.3247 6.52571 28.466 6.56317 28.6097 6.60176V6.85853C28.3675 6.82934 28.1393 6.80014 27.8885 6.77095C27.8563 6.91834 27.8255 7.06289 27.7941 7.21015C27.7614 7.3631 27.7281 7.51904 27.6918 7.68395L27.6805 7.68096C27.5928 7.6586 27.504 7.63596 27.3809 7.6052C27.4484 7.26113 27.5147 6.92062 27.5815 6.57627L27.7916 5.4965ZM11.2984 10.2373C11.4012 10.2895 11.5012 10.3419 11.5995 10.3935C11.8353 10.5172 12.0618 10.6362 12.2966 10.7347C12.653 10.8834 12.8383 11.2101 13.1005 11.4842C13.1804 11.423 13.2488 11.3676 13.3315 11.3034C13.3114 11.2717 13.2937 11.2398 13.2766 11.2089C13.2581 11.1753 13.2401 11.1429 13.2205 11.1134C13.2017 11.085 13.1814 11.0594 13.1576 11.038C12.8582 10.7726 12.7384 10.4225 12.6473 10.0463C12.6058 9.87055 12.5451 9.6988 12.4805 9.51594C12.4518 9.43491 12.4224 9.3516 12.3935 9.26473C12.2852 9.35801 12.2139 9.42223 12.1483 9.47763C12.1758 9.60993 12.2198 9.73326 12.2635 9.85588C12.3288 10.0389 12.3935 10.2206 12.4021 10.4284L12.1279 10.2891C11.9358 10.1915 11.754 10.0993 11.5667 10.0056C11.5307 10.0363 11.4952 10.0671 11.4582 10.0991L11.4338 10.1202C11.3919 10.1567 11.3476 10.1951 11.2984 10.2373ZM15.8061 9.49515C15.5043 8.9621 15.2138 8.44643 14.9063 7.90469L14.9809 7.85385C15.118 7.76029 15.236 7.67996 15.3642 7.59352C15.3394 7.56176 15.3172 7.53385 15.2961 7.50765C15.2649 7.46891 15.2358 7.43373 15.2037 7.39471L15.1954 7.38489L15.1846 7.37178C14.9573 7.50836 14.7347 7.64208 14.5101 7.77666L14.0129 8.07473C14.0386 8.12187 14.0617 8.16374 14.0836 8.20304C14.1077 8.24662 14.1301 8.28721 14.1525 8.32851C14.3208 8.23808 14.4661 8.15932 14.6173 8.07758C14.777 8.35443 14.9316 8.62302 15.0849 8.88947L15.5352 9.67302C15.5822 9.64283 15.6227 9.61591 15.6628 9.58928L15.6686 9.58544C15.7122 9.55653 15.7555 9.52776 15.8061 9.49515ZM34.0193 8.17385L33.9458 8.13583L33.7699 8.04554C33.5525 8.43147 33.3396 8.80858 33.1226 9.19281L32.8662 9.64682C32.7664 9.58843 32.6837 9.54172 32.5783 9.48347L32.7838 9.11676L33.1047 8.54555C33.2295 8.32352 33.3541 8.10222 33.4791 7.87934C33.3338 7.78307 33.194 7.68979 33.0458 7.58768C33.0619 7.55236 33.0768 7.52046 33.0916 7.48927L33.1299 7.4091L33.1684 7.32806C33.5789 7.576 33.9753 7.81227 34.3915 8.06006C34.3589 8.10549 34.3325 8.1438 34.307 8.18083L34.278 8.22284L34.2566 8.25374L34.2346 8.28465L34.0193 8.17385ZM25.9384 6.6546L25.87 7.39229H25.5506C25.5991 6.77095 25.6476 6.16726 25.6989 5.54022C25.6005 5.53196 25.5121 5.5237 25.4238 5.51544C25.3563 5.50903 25.2888 5.50277 25.2171 5.4965V5.19017C25.6733 5.23389 26.1066 5.27477 26.5542 5.31564V5.57526H26.0381C26.0057 5.93627 25.9723 6.29316 25.9384 6.6546ZM34.7221 8.29348H34.725C34.8248 8.36639 34.9046 8.42464 34.993 8.48887C34.5996 9.07802 34.2176 9.64967 33.8184 10.2447C33.7215 10.198 33.636 10.1601 33.5134 10.1017L34.7221 8.29348ZM29.5248 5.90181C29.351 6.58439 29.1799 7.258 29.0032 7.9551C28.6867 7.94058 28.6752 7.9289 28.738 7.67811C28.8891 7.0656 29.043 6.45593 29.2027 5.82021C29.3053 5.84641 29.3966 5.86976 29.5248 5.90181ZM27.2612 5.37972C27.2194 5.9226 27.1411 6.44198 27.0606 6.97446C27.0312 7.16871 27.0016 7.36481 26.9733 7.56433C26.845 7.53812 26.7623 7.52061 26.6597 7.5001C26.7319 6.97616 26.8011 6.46505 26.8717 5.94282L26.9448 5.40308C27.0245 5.39724 27.1186 5.38855 27.2612 5.37972Z" fill="white"/>
<path d="M29.4391 19.2433L29.4424 19.2398C30.312 18.3518 31.1818 17.4635 32.0535 16.5737L32.0478 16.5708C28.4128 12.7179 21.8243 11.878 17.1232 15.865C12.6015 19.7003 11.6465 26.6797 15.5579 31.7079C19.1616 36.3424 25.7643 37.4506 30.6936 33.8341C33.2624 31.9471 34.8048 29.3367 35.2324 26.1109C35.526 23.8973 35.1982 21.7565 34.2289 19.6916C30.8847 23.1127 27.5662 26.5047 24.2391 29.9084C24.2013 29.8735 24.1668 29.8421 24.1346 29.8131C24.0675 29.7523 24.0108 29.7011 23.9568 29.6459C22.979 28.6426 22.0011 27.6335 21.0175 26.636C20.8692 26.4872 20.8037 26.3385 20.8037 26.1198C20.8151 24.6031 20.8094 23.0864 20.8094 21.5698V21.1382L24.1963 24.5944C25.9531 22.803 27.6958 21.0233 29.4391 19.2433Z" fill="white"/>
<path fill-rule="evenodd" clip-rule="evenodd" d="M43.0696 45.2031C42.2543 45.206 41.4388 45.209 40.6235 45.209H39.0811L39.1618 45.1734C39.2222 45.1477 39.2804 45.1229 39.3293 45.101V41.5223H37.0657V42.6394H37.8497V44.1531C37.6358 44.2464 37.4192 44.3018 37.1911 44.3048C36.6095 44.3135 36.3472 44.1152 36.2303 43.5406C36.1889 43.3364 36.1725 43.1279 36.1562 42.9207L36.1476 42.8144C36.0849 42.0152 36.0964 41.2162 36.1476 40.4141C36.1676 40.0991 36.2161 39.7927 36.3586 39.5069C36.5154 39.1949 36.7948 39.0374 37.1056 39.0811C37.5161 39.1395 37.7156 39.3057 37.7983 39.6849C37.806 39.7187 37.8128 39.7524 37.819 39.7865C37.8236 39.8111 37.8278 39.8359 37.8318 39.8607C37.8435 39.9333 37.8534 40.0068 37.8634 40.0814L37.8643 40.0887L37.8647 40.0921L37.8744 40.1661L37.8828 40.2268C37.8867 40.255 37.8909 40.2834 37.8953 40.312H39.1982C39.2153 40.312 39.2324 40.3101 39.2522 40.307L39.2859 40.3009L39.2988 40.2985L39.3013 40.298L39.3363 40.2915L39.3692 40.2856C39.3596 40.1972 39.3532 40.1095 39.347 40.0226C39.3346 39.8518 39.3225 39.6849 39.2866 39.5244C39.1468 38.9119 38.8075 38.4628 38.2289 38.2033C37.7528 37.9904 37.2596 37.9729 36.7577 38.0021C35.7343 38.0633 35.07 38.5707 34.7849 39.5653C34.6545 40.0136 34.6323 40.475 34.6105 40.9345C34.607 41.0071 34.6035 41.0796 34.5996 41.1519C34.5569 41.9627 34.5996 42.7794 34.7221 43.5843C34.7963 44.0772 34.9674 44.5352 35.3608 44.8589C35.4687 44.9466 35.5901 45.019 35.7113 45.0913L35.7151 45.0939C35.7783 45.1315 35.8413 45.1692 35.9023 45.209C35.0025 45.206 34.1053 45.206 33.2082 45.206C33.6416 45.0076 34.0208 44.7363 34.1777 44.2492C34.2098 44.1504 34.2334 44.0483 34.2526 43.9446C34.2606 43.9012 34.2679 43.8576 34.2747 43.8139C34.2846 43.7505 34.2935 43.6869 34.3024 43.6235L34.3145 43.5376C34.4057 42.9134 34.2432 42.374 33.8042 41.919C33.5447 41.6507 33.2539 41.4348 32.9318 41.2539C32.5554 41.041 32.1791 40.8222 31.8199 40.5773C31.5262 40.3789 31.3866 40.0844 31.4207 39.7082C31.4549 39.3261 31.6774 39.1103 32.0993 39.0664C32.3901 39.0374 32.6552 39.2445 32.7351 39.5769C32.7497 39.6404 32.7622 39.705 32.7736 39.7698C32.781 39.8111 32.7878 39.8526 32.7945 39.8939L32.8214 40.0613C32.8257 40.0887 32.8302 40.1157 32.8347 40.1427H34.2346C34.2346 40.0712 34.2361 40.0015 34.2377 39.9334L34.2381 39.9226C34.2418 39.7725 34.2453 39.6297 34.2318 39.4894C34.1663 38.7778 33.7386 38.2966 33.2169 38.1419C32.4157 37.9056 31.6231 37.929 30.8505 38.2469C30.6083 38.3461 30.4057 38.5123 30.2462 38.7399C29.7501 39.4427 29.693 40.8748 30.7052 41.6126C30.8939 41.7493 31.0915 41.8751 31.2891 42.0008C31.429 42.0899 31.5689 42.1789 31.7058 42.2719C31.9795 42.4556 32.2533 42.6423 32.5155 42.8463C32.7493 43.0302 32.8263 43.2838 32.8148 43.5872C32.7977 44.0422 32.5554 44.2609 32.1563 44.2814C31.7372 44.3018 31.435 44.1618 31.358 43.7477C31.3333 43.6081 31.315 43.4664 31.296 43.3174L31.2947 43.3089L31.2934 43.2982C31.2826 43.2138 31.2713 43.1265 31.2582 43.036H30.5512C30.4692 43.036 30.3872 43.0368 30.3045 43.0377C30.2278 43.0386 30.1506 43.0397 30.072 43.0409C29.9818 43.0423 29.89 43.0437 29.7957 43.0447C29.7928 43.6222 29.8099 44.1443 30.1094 44.6227C30.1336 44.6621 30.16 44.6986 30.1883 44.7326C30.2161 44.7662 30.2455 44.7975 30.2761 44.8272C30.3661 44.9142 30.4667 44.9864 30.5678 45.0589L30.569 45.0597L30.5732 45.0627C30.639 45.11 30.7049 45.1573 30.7678 45.209L30.7649 45.2176H25.4422C25.4289 45.4316 25.5011 45.5423 25.6589 45.5502H43.6798C43.7622 45.5502 43.8436 45.5525 43.9306 45.5555L44.0364 45.5593L44.1017 45.5619C44.1017 45.9847 44.096 46.3698 44.1017 46.7519C44.1045 47.0172 44.1216 47.026 44.438 46.9764V45.5414H47.0039V45.2148H44.4154V36.6429C44.2955 36.6924 44.2185 36.7216 44.1445 36.7537L44.1446 36.7507C44.0414 36.8145 44.0452 36.9113 44.0491 37.0082L44.0499 37.0287L44.0505 37.0627V38.6698C44.0505 38.7056 44.0472 38.7413 44.0416 38.7862L44.0352 38.837L44.0343 38.843L44.0327 38.8562C44.0285 38.8881 44.0239 38.9246 44.0192 38.9673C43.6941 38.3111 43.1667 38.0835 42.5737 38.0136C42.1119 37.9582 41.6414 37.964 41.1824 38.0777C40.8489 38.1623 40.5439 38.3023 40.2844 38.5474C39.6144 39.1861 39.4862 40.7582 40.5096 41.5485C40.8546 41.8139 41.2279 42.043 41.5995 42.2711L41.7099 42.3389C42.0235 42.5343 42.3314 42.7297 42.5537 43.033C42.7904 43.3597 42.7477 43.6631 42.5709 43.978C42.434 44.223 42.1318 44.331 41.8268 44.2668C41.4049 44.1822 41.2708 44.048 41.208 43.6456C41.1897 43.5322 41.1752 43.4188 41.1604 43.3036L41.1592 43.2929L41.1583 43.2865C41.1489 43.2109 41.1391 43.1344 41.1283 43.0564H39.6372C39.6463 43.1538 39.6539 43.2481 39.6613 43.3402C39.6751 43.51 39.6882 43.6725 39.7085 43.8351C39.7741 44.3689 39.9822 44.8122 40.4697 45.0805C40.512 45.1031 40.5471 45.1359 40.5822 45.1687C40.5968 45.1823 40.6114 45.196 40.6264 45.2088C41.0453 45.2073 41.4642 45.2058 41.883 45.2047L42.3259 45.2038C42.5738 45.2034 42.8217 45.2031 43.0696 45.2031ZM30.7678 45.209C31.5804 45.209 32.3928 45.209 33.2053 45.206C32.6315 45.206 32.0576 45.206 31.4836 45.207C31.246 45.2074 31.0084 45.208 30.7707 45.2088L30.7678 45.209ZM43.0696 45.2031C43.4832 45.0076 43.8509 44.7597 44.0249 44.2813C44.0377 44.2887 44.0512 44.2952 44.0647 44.3018C44.0783 44.3083 44.0918 44.3149 44.1046 44.3222V45.2001C44.1073 45.1912 44.1104 45.1822 44.1136 45.1731L44.1211 45.1523C44.133 45.1202 44.1452 45.0876 44.1471 45.0549C44.146 45.0775 44.1396 45.1004 44.1315 45.1239L44.122 45.1506C44.1156 45.1681 44.1092 45.1856 44.1045 45.2031H43.0696ZM42.7504 40.166C42.7388 40.0959 42.7287 40.0296 42.7193 39.9659L42.7188 39.9638L42.7184 39.9621L42.718 39.9587V39.9574C42.6953 39.808 42.6749 39.6735 42.6392 39.5418C42.551 39.2181 42.2373 39.0197 41.9351 39.0694C41.4961 39.1423 41.3078 39.3406 41.2793 39.7285C41.2509 40.1076 41.4163 40.3877 41.7042 40.5831C41.8197 40.6616 41.9375 40.7368 42.0566 40.8103C42.2231 40.913 42.3923 41.0121 42.5621 41.1115C42.6363 41.1549 42.7105 41.1984 42.7847 41.2422C43.2608 41.5222 43.7113 41.8285 43.9906 42.3359C43.9998 42.353 44.0188 42.3639 44.0395 42.3758C44.0506 42.3824 44.0623 42.3891 44.0733 42.3972C44.1275 41.983 44.1133 40.4256 44.0505 40.166H42.7504ZM44.146 40.8981C44.1453 39.5643 44.1446 38.2308 44.1446 36.8969C44.1454 37.8031 44.146 38.7093 44.1464 39.6154C44.1471 41.0407 44.1472 42.4661 44.1472 43.8914L44.146 40.8981Z" fill="white"/>
<path d="M7.4014 26.2364C7.42116 26.3915 7.43996 26.5326 7.45889 26.6759L7.49258 26.9305C6.55293 27.0397 5.64099 27.147 4.73183 27.2539L4.18266 27.3184C4.06016 27.0852 4.04874 26.8634 4.07714 26.6213C4.84862 26.5313 5.61454 26.4429 6.39451 26.3529L7.4014 26.2364Z" fill="white"/>
<path d="M6.83413 29.5264C6.77705 29.293 6.7229 29.0859 6.66875 28.8672L6.70508 28.8492L6.73794 28.8326L6.77413 28.8141C6.8468 28.7766 6.91529 28.7414 6.98517 28.7155C7.06438 28.6853 7.11574 28.6379 7.13955 28.5792C7.15946 28.5301 7.16015 28.4733 7.14192 28.4122C7.11059 28.3102 7.04503 28.1934 6.96234 28.1469C6.84833 28.0798 6.70007 28.1118 6.64021 28.249C6.61015 28.3169 6.58272 28.3858 6.55655 28.4555C6.54625 28.4829 6.53623 28.5104 6.5262 28.5381L6.49572 28.6222C6.47804 28.6714 6.46036 28.7205 6.44226 28.7693C6.42792 28.8078 6.41331 28.8462 6.39799 28.8844L6.38366 28.9197C6.30946 29.1006 6.24111 29.2843 6.1413 29.4476C5.88752 29.8676 5.34016 29.9347 5.02945 29.8356C4.59889 29.6984 4.40219 29.3689 4.33662 28.9372L4.33453 28.9244L4.33412 28.9223C4.31212 28.7809 4.28901 28.6319 4.31101 28.4939C4.38799 27.9864 4.74436 27.6715 5.24035 27.6481C5.3545 27.6423 5.40573 27.7064 5.42285 27.8115C5.43886 27.922 5.45348 28.0339 5.46865 28.1503L5.48842 28.3014C5.46963 28.3079 5.45083 28.3143 5.43204 28.3205C5.40392 28.3297 5.37594 28.3385 5.34796 28.3474C5.28685 28.3667 5.22615 28.3861 5.16629 28.4093C5.00662 28.4706 4.94384 28.596 4.95818 28.7681C4.9753 28.9664 5.0637 29.0918 5.21752 29.1385C5.36299 29.1822 5.53115 29.121 5.61106 28.9459C5.70516 28.7389 5.7621 28.5114 5.83908 28.2955C5.85036 28.2632 5.86094 28.2305 5.87151 28.1977L5.87193 28.196C5.90409 28.0967 5.93611 27.9979 5.98733 27.9106C6.20116 27.5547 6.50616 27.3914 6.93102 27.4206C7.31022 27.4469 7.54394 27.651 7.68942 27.9718C7.86036 28.3539 7.92314 28.7447 7.66088 29.1239C7.45847 29.4185 7.17045 29.5002 6.83984 29.5293L6.83413 29.5264Z" fill="white"/>
<path fill-rule="evenodd" clip-rule="evenodd" d="M6.18974 32.5975C5.82196 32.6063 5.59101 32.478 5.39724 32.2651C5.05799 31.8917 4.96389 31.3551 5.15766 30.9146C5.24606 30.7134 5.40295 30.5706 5.58531 30.4918C5.66117 30.4588 5.7369 30.4254 5.81263 30.3921C6.27842 30.1871 6.74448 29.9818 7.22753 29.8414C7.79772 29.6781 8.29664 30.0572 8.44767 30.5676C8.51616 30.801 8.60164 31.0226 8.53607 31.2764C8.44489 31.6321 8.22815 31.883 7.91465 32.0142C7.70278 32.1025 7.48757 32.1831 7.27096 32.2603C7.09305 32.3238 6.91403 32.3849 6.73474 32.446L6.5759 32.5004L6.41219 32.5568C6.32756 32.5856 6.23387 32.5955 6.19712 32.5994L6.18696 32.6005L6.18974 32.5975ZM7.89182 30.9789C7.89753 30.6463 7.62956 30.4509 7.31871 30.5617C7.09347 30.6405 6.86545 30.7134 6.64592 30.8038C6.38366 30.9118 6.12139 31.0226 5.87611 31.1597C5.68512 31.2647 5.6595 31.425 5.75361 31.6379C5.84479 31.8452 5.98455 31.9354 6.18696 31.8684C6.66875 31.705 7.14762 31.5271 7.62385 31.3434C7.77489 31.285 7.89461 31.1714 7.89461 30.9789H7.89182Z" fill="white"/>
<path fill-rule="evenodd" clip-rule="evenodd" d="M11.6465 39.679C11.504 39.8715 11.4071 40.1048 11.4441 40.3323C11.4441 40.8776 11.9145 41.3532 12.3935 41.2714C12.5129 41.251 12.6365 41.2063 12.7514 41.1452C12.8126 41.1126 12.8714 41.0755 12.9257 41.035C12.9591 41.0099 12.991 40.9837 13.0206 40.9564C13.4882 40.5189 13.8759 40.0115 14.1326 39.4135C14.2323 39.1802 14.2665 38.9206 14.1525 38.7019C13.7705 37.9786 13.0263 37.9699 12.6558 38.4132C12.4451 38.6638 12.2377 38.9156 12.0354 39.1717C11.9035 39.3386 11.7736 39.5074 11.6465 39.679ZM13.4818 38.9034C13.5017 38.9498 13.517 39.0069 13.5396 39.0548H13.5367L13.5167 39.0939C13.5059 39.1154 13.4956 39.1367 13.4856 39.1574L13.457 39.2157C13.4491 39.2316 13.441 39.2473 13.4328 39.2625C13.4115 39.3021 13.3891 39.3392 13.3628 39.3728C13.1537 39.6481 12.9429 39.9233 12.7265 40.1945C12.6654 40.271 12.6038 40.347 12.5417 40.4226C12.4618 40.5219 12.3592 40.6531 12.1996 40.5481C12.1818 40.5357 12.1667 40.5198 12.1546 40.5008C12.1304 40.4627 12.1183 40.4128 12.1206 40.3573C12.1223 40.3178 12.1315 40.2755 12.1489 40.2325C12.1614 40.2016 12.1781 40.1704 12.1996 40.1398C12.4904 39.7315 12.8012 39.3377 13.1062 38.9381C13.1261 38.9119 13.1547 38.8856 13.186 38.8769C13.2659 38.8507 13.3657 38.7953 13.4226 38.8243C13.4309 38.8288 13.4382 38.8346 13.4449 38.8417C13.4597 38.8574 13.4714 38.8789 13.4818 38.9034Z" fill="white"/>
<path d="M11.6066 38.5153C11.561 39.119 11.1789 39.5798 10.6715 39.6616C10.3094 39.7198 9.84475 39.4604 9.58527 38.9645C9.39428 38.5969 9.55966 38.1799 10.0357 37.7892L10.114 37.876L10.1864 37.9572L10.2764 38.0586L10.2952 38.0798C10.3549 38.1472 10.4163 38.2164 10.4805 38.2879C10.4681 38.3037 10.4545 38.3203 10.4401 38.3379C10.4241 38.3577 10.4073 38.3785 10.3903 38.4C10.3637 38.4337 10.3368 38.4696 10.3122 38.5066L10.2982 38.5271C10.2831 38.5489 10.2679 38.571 10.2554 38.5938C10.2426 38.617 10.2327 38.6408 10.2287 38.6658C10.2277 38.6721 10.227 38.6785 10.2269 38.6849C10.2263 38.7009 10.2284 38.7171 10.234 38.7339C10.237 38.7433 10.2411 38.7529 10.2464 38.7625C10.2512 38.7714 10.2569 38.7803 10.2638 38.7895C10.3111 38.8528 10.3644 38.8995 10.43 38.9203C10.4671 38.9322 10.5082 38.9357 10.5546 38.9294C10.8739 38.8886 11.0393 38.5095 10.8483 38.2499C10.8075 38.195 10.7635 38.145 10.7149 38.0904L10.7141 38.0891L10.6658 38.0341C10.7021 37.9892 10.7344 37.9477 10.7656 37.9085C10.7933 37.8737 10.8202 37.841 10.8483 37.8095C10.9253 37.7278 11.0107 37.6549 11.0934 37.5791C11.4185 37.9028 11.6152 37.9378 11.7891 37.7191C11.9231 37.5499 11.8916 37.4333 11.6494 37.232C11.541 37.3195 11.427 37.4099 11.3016 37.509C11.2388 37.4508 11.1761 37.4012 11.122 37.3458C11.0749 37.2963 11.0279 37.246 10.9812 37.196L10.9595 37.1725L10.8809 37.0889L10.8426 37.0483C11.1019 36.634 11.4983 36.4737 11.8889 36.6225C12.325 36.7887 12.6158 37.2933 12.5445 37.7658C12.4819 38.1858 12.1141 38.4833 11.6038 38.5125L11.6066 38.5153Z" fill="white"/>
<path d="M6.76592 35.1588C6.94508 35.4685 7.12479 35.7801 7.30729 36.0974L7.30451 36.0916L7.58933 35.9146L7.64654 35.8791L7.84909 35.7532C7.80551 35.6047 7.72644 35.4818 7.64738 35.3587C7.60297 35.2897 7.55856 35.2206 7.52042 35.147C7.47963 35.0684 7.44594 34.9845 7.42701 34.8899C7.51541 34.8979 7.59322 34.9042 7.66589 34.9097L7.82848 34.9215L7.83475 34.922C7.91382 34.9285 7.99289 34.9362 8.07196 34.9439H8.07321C8.19223 34.9554 8.31111 34.967 8.43013 34.9747C8.51394 34.9799 8.59774 34.9832 8.68154 34.9832C9.0407 34.9862 9.34013 34.814 9.58527 34.5632C9.65488 34.492 9.71696 34.3969 9.75817 34.2982C9.77432 34.2593 9.78726 34.2199 9.79617 34.1811C9.88457 33.7874 9.62523 33.2828 9.32301 33.1021C9.04933 32.9387 8.55319 32.9649 8.25668 33.3033C8.30513 33.3846 8.35413 33.4675 8.40369 33.552C8.46786 33.6613 8.53287 33.7731 8.59885 33.8866L8.62572 33.8721L8.68126 33.8415C8.74182 33.808 8.79082 33.781 8.84121 33.7583C8.87977 33.7402 8.91917 33.7274 8.95634 33.7256C8.97833 33.7244 8.99963 33.7271 9.0194 33.735C9.05253 33.7482 9.08148 33.7754 9.10348 33.8224C9.11239 33.8412 9.11949 33.8594 9.1245 33.8772C9.12881 33.8923 9.1316 33.9071 9.13285 33.9215C9.13452 33.9392 9.13383 33.9563 9.1309 33.9728C9.12436 34.0094 9.10598 34.043 9.07466 34.073C9.05837 34.0887 9.03861 34.1034 9.01508 34.1171C8.74711 34.2746 8.46201 34.3095 8.1598 34.2687C7.7863 34.219 7.41281 34.1987 7.04224 34.1519C6.76856 34.1171 6.56323 34.2337 6.35512 34.4494C6.49224 34.6859 6.62894 34.9217 6.76592 35.1588Z" fill="white"/>
<path d="M9.22403 37.557C9.26593 37.618 9.30185 37.6839 9.32579 37.76L8.83829 38.1594C8.5202 37.7422 8.21325 37.3361 7.91145 36.9371L7.69791 36.6546C7.90894 36.3571 8.15116 36.2346 8.49612 36.2463C8.90218 36.2591 9.31271 36.2245 9.71989 36.1901L9.88749 36.1762C9.90614 36.1746 9.92494 36.1715 9.94387 36.1669C9.95807 36.1635 9.97241 36.1594 9.98661 36.1545C10.0317 36.1393 10.0767 36.1178 10.1195 36.0943C10.1467 36.0794 10.173 36.0635 10.1982 36.0479C10.4577 35.8845 10.4577 35.832 10.2238 35.552C10.1127 35.6162 9.99579 35.6862 9.85325 35.7679L9.82554 35.7376L9.781 35.6906C9.73228 35.6394 9.68188 35.5867 9.6365 35.5288C9.57386 35.45 9.52249 35.3596 9.46834 35.275C9.84183 34.7558 10.3522 34.7092 10.7655 35.1554C11.35 35.7913 11.0165 36.5262 10.3293 36.8032C10.0756 36.9053 9.80759 36.9579 9.5282 36.9404C9.41725 36.9331 9.3063 36.9323 9.19327 36.9333L9.13508 36.934L9.06422 36.9351H9.06213C8.98794 36.9362 8.91263 36.9374 8.83551 36.9374C8.86919 37.1292 8.97917 37.2582 9.08956 37.3877C9.13619 37.4425 9.18297 37.4973 9.22403 37.557Z" fill="white"/>
<path d="M13.9228 42.4711C13.996 42.5177 14.0698 42.5647 14.1468 42.6132V42.6161C14.6406 41.7709 15.11 40.9713 15.5721 40.1844L15.8259 39.752C15.5545 39.4406 15.2429 39.4601 14.9286 39.4799C14.8073 39.4874 14.6857 39.495 14.5658 39.4836C14.4575 39.6936 14.352 39.8978 14.2295 40.1311C14.4233 40.1486 14.5687 40.1661 14.7398 40.1837C14.4997 40.5924 14.2675 40.99 14.0345 41.389L14.0328 41.392L13.5424 42.2311C13.6753 42.3137 13.7981 42.3918 13.9228 42.4711Z" fill="white"/>
</g>
</svg>
